<svg xmlns="http://www.w3.org/2000/svg" enable-background="new 0 0 28 28" viewBox="0 0 28 28" id="code-sandbox"><path fill="#DEFF8F" d="M15.047,3.137l10.312,6.062c0,0,0.562,9.654-0.312,11.14s-8.409,5.839-10.548,5.506s-9.264-3.208-9.764-5.771s-0.734-9.751,1.25-11.312S12.547,3.512,15.047,3.137z"></path><path d="M13.957,26c-0.086,0-0.173-0.022-0.25-0.067l-9.957-5.75C3.596,20.094,3.5,19.929,3.5,19.75V8.25c0-0.179,0.096-0.344,0.25-0.433l9.957-5.75c0.154-0.089,0.346-0.089,0.5,0l9.957,5.75c0.153,0.089,0.249,0.252,0.25,0.429L24.5,19.698c0.001,0.18-0.094,0.347-0.25,0.437l-10.043,5.798C14.13,25.978,14.043,26,13.957,26z M4.5,19.461l9.457,5.461l9.541-5.508L23.416,8.54l-9.459-5.463L4.5,8.539V19.461z M14.962,23.039c-0.086,0-0.172-0.022-0.249-0.066c-0.155-0.089-0.251-0.255-0.251-0.434v-7.927c0-0.179,0.096-0.345,0.252-0.434l6.969-3.984c0.156-0.088,0.347-0.088,0.499,0.001c0.154,0.089,0.249,0.254,0.249,0.433v4.56c0,0.181-0.098,0.348-0.256,0.437l-2.93,1.64v3.075c0,0.178-0.095,0.343-0.249,0.432l-3.783,2.2C15.136,23.016,15.049,23.039,14.962,23.039z M15.462,14.901v6.768l2.783-1.619v-3.08c0-0.181,0.098-0.348,0.256-0.437l2.93-1.64v-3.405L15.462,14.901z M21.931,15.188h0.01H21.931z M12.957,23.039c-0.087,0-0.174-0.022-0.251-0.068l-3.783-2.2c-0.154-0.089-0.249-0.254-0.249-0.432v-3.077l-2.93-1.639c-0.158-0.088-0.256-0.255-0.256-0.437v-4.559c0-0.178,0.095-0.343,0.249-0.433c0.153-0.089,0.344-0.09,0.499-0.001l6.969,3.984c0.156,0.089,0.252,0.255,0.252,0.434v7.927c0,0.179-0.096,0.344-0.251,0.434C13.129,23.017,13.043,23.039,12.957,23.039z M9.674,20.051l2.783,1.619v-6.768l-5.969-3.412v3.404l2.93,1.639c0.158,0.088,0.256,0.255,0.256,0.437V20.051z M13.94,13.297c-0.086,0-0.171-0.022-0.248-0.066L6.736,9.26C6.581,9.172,6.485,9.007,6.484,8.828C6.483,8.649,6.579,8.483,6.733,8.394l3.727-2.162c0.153-0.089,0.346-0.09,0.501,0l3.018,1.742l2.997-1.72c0.154-0.089,0.343-0.088,0.497,0l3.687,2.105c0.155,0.089,0.252,0.254,0.252,0.434s-0.096,0.345-0.251,0.434l-6.971,4.006C14.112,13.275,14.026,13.297,13.94,13.297z M7.985,8.822l5.954,3.399l5.966-3.428l-2.68-1.531l-2.999,1.721c-0.154,0.089-0.345,0.088-0.499,0l-3.016-1.741L7.985,8.822z"></path></svg>